HIERARCHY
ROOT Hips
{
	OFFSET 0.0000 0.0000 0.0000
	CHANNELS 6 Xposition Yposition Zposition Zrotation Xrotation Yrotation
	JOINT Ab
	{
		OFFSET -0.0000 8.0846 -0.0000
		CHANNELS 3 Zrotation Xrotation Yrotation
		JOINT Chest
		{
			OFFSET -0.0000 25.0068 -0.0000
			CHANNELS 3 Zrotation Xrotation Yrotation
			JOINT Neck
			{
				OFFSET -0.0000 25.0068 0.0000
				CHANNELS 3 Zrotation Xrotation Yrotation
				JOINT Head
				{
					OFFSET -0.0000 10.7556 0.0000
					CHANNELS 3 Zrotation Xrotation Yrotation
					End Site
					{
						OFFSET -0.0000 16.6222 0.0000
					}
				}
			}
			JOINT LeftCollar
			{
				OFFSET -0.0000 25.0068 0.0000
				CHANNELS 3 Zrotation Xrotation Yrotation
				JOINT LeftShoulder
				{
					OFFSET 19.5556 -0.0000 0.0000
					CHANNELS 3 Zrotation Xrotation Yrotation
					JOINT LeftElbow
					{
						OFFSET 27.1828 0.0000 0.0000
						CHANNELS 3 Zrotation Xrotation Yrotation
						JOINT LeftWrist
						{
							OFFSET 23.3157 0.0000 0.0000
							CHANNELS 3 Zrotation Xrotation Yrotation
							End Site
							{
								OFFSET 0.0000 -14.6667 0.0000
							}
						}
					}
				}
			}
			JOINT RightCollar
			{
				OFFSET -0.0000 25.0068 0.0000
				CHANNELS 3 Zrotation Xrotation Yrotation
				JOINT RightShoulder
				{
					OFFSET -19.5556 0.0000 0.0000
					CHANNELS 3 Zrotation Xrotation Yrotation
					JOINT RightElbow
					{
						OFFSET -27.1828 0.0000 0.0000
						CHANNELS 3 Zrotation Xrotation Yrotation
						JOINT RightWrist
						{
							OFFSET -23.3157 0.0000 0.0000
							CHANNELS 3 Zrotation Xrotation Yrotation
							End Site
							{
								OFFSET -0.0000 -14.6667 0.0000
							}
						}
					}
				}
			}
		}
	}
	JOINT LeftHip
	{
		OFFSET 11.7333 0.0000 0.0000
		CHANNELS 3 Zrotation Xrotation Yrotation
		JOINT LeftKnee
		{
			OFFSET -0.0000 -40.8688 0.0000
			CHANNELS 3 Zrotation Xrotation Yrotation
			JOINT LeftAnkle
			{
				OFFSET -0.0000 -44.4337 0.0000
				CHANNELS 3 Zrotation Xrotation Yrotation
				End Site
				{
					OFFSET -0.0000 -4.8889 16.6222
				}
			}
		}
	}
	JOINT RightHip
	{
		OFFSET -11.7333 0.0000 0.0000
		CHANNELS 3 Zrotation Xrotation Yrotation
		JOINT RightKnee
		{
			OFFSET -0.0000 -40.8688 0.0000
			CHANNELS 3 Zrotation Xrotation Yrotation
			JOINT RightAnkle
			{
				OFFSET -0.0000 -44.4337 0.0000
				CHANNELS 3 Zrotation Xrotation Yrotation
				End Site
				{
					OFFSET -0.0000 -4.8889 16.6222
				}
			}
		}
	}
}
MOTION
Frames: 24
Frame Time: 0.010000
-4.9838 88.5756 185.9830 2.5963 0.4842 172.9288 1.9098 359.6228 357.9028 359.1861 11.4082 357.9794 1.7096 348.6668 2.3335 1.8283 14.5941 1.9289 339.1925 358.5267 7.9433 300.7348 30.4990 355.1751 15.3444 354.7348 322.3271 82.6098 1.4450 341.0814 22.5841 359.2293 356.1463 58.5121 43.5651 8.2323 338.1039 354.3577 28.5260 278.0323 351.6839 16.8280 1.8296 357.9422 357.6310 359.2088 9.3290 357.6932 1.1192 354.3243 22.0059 1.1825 351.4335 359.9638 358.6228 20.2107 8.3036 356.0937 345.8051 337.3136 
-4.9870 88.5761 185.9814 2.5939 0.4774 172.9442 1.9098 359.6460 357.9118 359.1836 11.3666 357.9877 1.7013 348.6889 2.3223 1.8240 14.5879 1.9191 339.1848 358.5456 7.9759 300.7657 30.5578 355.1477 15.2898 354.7335 322.3995 82.6848 1.3531 340.9975 22.5891 359.2488 356.1536 58.5212 43.5478 8.2260 338.5739 354.4952 29.0367 277.3875 353.1636 18.7740 1.8241 357.9322 357.6107 359.2119 9.3285 357.6644 1.1307 354.3234 22.0154 1.1819 351.4249 359.9338 358.6106 20.2234 8.3091 356.1077 345.7921 337.3256 
-4.9914 88.5758 185.9740 2.5830 0.4663 172.9699 1.9000 359.6395 357.9134 359.1947 11.3665 357.9897 1.6638 348.6522 2.2973 1.8391 14.6313 1.8926 339.1927 358.5267 7.9087 300.7047 30.2937 355.2288 15.1865 354.7776 322.2643 82.7007 1.3998 340.8468 22.5818 359.2212 356.1652 58.5755 43.5648 8.1799 338.0692 354.3008 28.5173 278.0474 351.6958 16.8137 1.8106 357.9156 357.6008 359.2144 9.3369 357.6480 1.1994 354.3241 22.0219 1.1694 351.4282 359.9269 358.6084 20.2131 8.3179 356.0558 345.7940 337.3284 
-4.9934 88.5759 185.9638 2.5835 0.4741 172.9939 1.9022 359.6489 357.9086 359.1941 11.3622 357.9825 1.6726 348.6692 2.3110 1.8332 14.6410 1.9090 339.1846 358.5538 7.9326 300.7248 30.3737 355.2147 15.2333 354.7769 322.3105 82.5946 1.3619 340.8750 22.5872 359.2489 356.1994 58.6020 43.4971 8.1431 338.5786 354.4735 29.0663 277.3570 353.2278 18.9353 1.8137 357.9350 357.5409 359.1886 9.3174 357.6771 1.1413 354.3219 22.0428 1.1681 351.4477 359.9174 358.6032 20.2088 8.3023 356.0292 345.7835 337.3210 
-4.9949 88.5757 185.9631 2.5770 0.4428 173.0290 1.9101 359.6401 357.8938 359.1801 11.3312 357.9695 1.6483 348.6920 2.3042 1.8540 14.6364 1.9016 339.1882 358.5261 7.9533 300.7168 30.3968 355.2224 15.2995 354.7510 322.2812 82.6255 1.3514 340.9151 22.5955 359.2203 356.2080 58.6194 43.5097 8.1380 338.5452 354.4044 29.0535 277.4552 353.1821 19.0099 1.8128 357.8859 357.5087 359.1820 9.3402 357.6687 1.1376 354.3058 22.0350 1.1595 351.4302 359.9362 358.6207 20.2021 8.2894 356.0224 345.7408 337.2528 
-4.9959 88.5767 185.9501 2.5705 0.4549 173.0505 1.9103 359.6626 357.8918 359.1638 11.3076 357.9699 1.6065 348.7064 2.3070 1.9136 14.6647 1.9033 339.1750 358.5525 7.9848 300.7521 30.4370 355.2241 15.2593 354.7568 322.3221 82.6780 1.3107 340.9279 22.6113 359.2473 356.2535 58.6413 43.4753 8.0845 338.7131 354.4420 29.1590 276.5481 354.0101 19.2472 1.8032 357.8970 357.4760 359.1366 9.3187 357.8207 1.2585 354.3357 22.0159 1.1533 351.4621 359.9817 358.6374 20.1802 8.2304 356.0374 345.7481 337.2322 
-4.9995 88.5789 185.9465 2.5674 0.4444 173.0770 1.9044 359.6683 357.9031 359.1642 11.3069 357.9809 1.6140 348.6827 2.2945 1.8662 14.7083 1.8922 339.1826 358.5253 7.9269 300.6847 30.2126 355.3200 15.2216 354.7426 322.1705 82.6219 1.3534 340.7881 22.5973 359.2482 356.2713 58.6667 43.4537 8.0795 338.5791 354.3904 29.0798 277.4979 353.1918 19.1314 1.8250 357.9514 357.4825 359.1352 9.2214 357.5823 1.2902 354.4054 22.1385 1.1520 351.4672 359.9784 358.6315 20.1605 8.2361 355.7548 345.7806 337.1686 
-4.9987 88.5808 185.9402 2.5582 0.4337 173.1227 1.8899 359.6787 357.9012 359.1593 11.2798 357.9797 1.6148 348.6867 2.2715 1.8476 14.7474 1.8713 339.1776 358.5592 7.9127 300.7075 30.0987 355.3349 15.0722 354.8022 322.1401 82.6939 1.3463 340.7104 22.6102 359.2193 356.2341 58.6041 43.5189 8.1428 338.7068 354.4105 29.1364 276.5733 353.9436 19.2809 1.8019 357.8589 357.3868 359.1481 9.3756 357.6228 1.1230 354.2846 22.1000 1.1461 351.4693 359.9652 358.6231 20.1604 8.1941 356.0633 345.7011 337.2398 
-5.0025 88.5846 185.9336 2.5470 0.4251 173.1613 1.8777 359.6811 357.9157 359.1491 11.2890 357.9945 1.6549 348.6693 2.2827 1.8241 14.7699 1.8816 339.1787 358.5247 7.8954 300.7012 30.0375 355.3662 15.0688 354.7693 322.0339 82.7487 1.3658 340.7134 22.6211 359.2529 356.2174 58.5275 43.5186 8.2351 338.8146 354.4702 29.0724 276.6251 353.8022 19.2781 1.8020 357.9020 357.3626 359.1240 9.2598 357.5904 1.2513 354.3613 22.1503 1.1277 351.4702 359.9357 358.6218 20.1636 8.2158 356.0788 345.6510 337.2083 
-5.0108 88.5863 185.9310 2.5312 0.4094 173.1925 1.8876 359.6924 357.9152 359.1111 11.2738 357.9983 1.6038 348.6429 2.2634 1.8724 14.8218 1.8610 339.1814 358.5597 7.8753 300.7049 29.8835 355.3912 14.9070 354.8449 322.0158 82.8424 1.3033 340.5729 22.6341 359.2124 356.2034 58.4574 43.6259 8.2966 338.6562 354.4280 28.9632 277.4529 353.1507 19.1021 1.7978 357.8748 357.3087 359.0425 9.2437 357.7208 1.3588 354.4191 22.1834 1.0948 351.4731 359.9682 358.6656 20.1366 8.1097 356.1153 345.6543 337.1976 
-5.0214 88.5887 185.9259 2.5085 0.3795 173.2391 1.8786 359.6692 357.9213 359.0946 11.2848 358.0064 1.5790 348.6174 2.2698 1.8986 14.8839 1.8650 339.1855 358.5320 7.8525 300.6710 29.8360 355.4593 14.9398 354.7839 321.8706 82.8096 1.3414 340.5324 22.6290 359.2326 356.2067 58.3880 43.6762 8.3613 338.8602 354.4851 29.0117 276.5224 353.9472 19.2819 1.7736 357.8084 357.2458 359.0761 9.3253 357.5610 1.3161 354.3494 22.2124 1.0542 351.4579 359.9538 358.6693 20.2128 7.9505 356.0265 345.5949 337.3348 
-5.0358 88.5890 185.9133 2.4841 0.3780 173.2985 1.9286 359.7057 357.8944 358.9852 11.2152 357.9891 1.5679 348.6684 2.2564 1.8691 14.9040 1.8557 339.1806 358.5659 7.8769 300.7178 29.8514 355.4945 14.9089 354.8080 321.8539 82.7969 1.3009 340.5760 22.6846 359.2488 356.2386 58.3210 43.6996 8.3631 338.9158 354.4932 28.9900 276.6669 353.8136 19.3252 1.7391 357.8013 357.2114 359.0816 9.3362 357.5381 1.3421 354.3642 22.1941 1.0025 351.4879 359.9137 358.6885 20.1757 7.8570 356.3598 345.4858 337.4456 
-5.0444 88.5908 185.9024 2.4678 0.3637 173.3389 1.9273 359.7039 357.9152 358.9520 11.2145 358.0145 1.5235 348.6513 2.2486 1.9083 14.9500 1.8482 339.1767 358.5372 7.8910 300.7027 29.7676 355.5549 14.9963 354.7393 321.5971 82.6891 1.4719 340.8603 22.6801 359.2771 356.3277 58.3648 43.6554 8.3150 338.9281 354.4773 28.9936 276.7437 353.8348 19.4391 1.7277 357.7837 357.1831 359.0568 9.3340 357.5110 1.3376 354.3607 22.2322 0.9674 351.4921 359.9127 358.7170 20.1687 7.7898 356.4698 345.4138 337.4537 
-5.0587 88.5921 185.8938 2.4515 0.3583 173.4046 1.9427 359.7315 357.9126 358.9123 11.1864 358.0154 1.4397 348.6565 2.2157 1.9657 14.9886 1.8136 339.1451 358.5610 7.9472 300.7826 29.9482 355.5119 15.0549 354.7368 321.6475 82.6989 1.3815 341.0496 22.6870 359.2568 356.3442 58.3351 43.7075 8.3206 338.8754 354.4803 28.9836 276.8022 353.8364 19.4055 1.7058 357.7651 357.1069 359.0477 9.3496 357.4848 1.2707 354.3423 22.2589 0.9282 351.5130 359.8843 358.7406 20.1482 7.7270 358.1149 344.3345 336.7996 
-5.0743 88.5939 185.8841 2.4216 0.3303 173.4662 1.9186 359.7447 357.9649 358.8801 11.1589 358.0713 1.4677 348.6401 2.1991 1.9245 15.0148 1.7986 339.1305 358.5307 7.9736 300.8071 29.9923 355.5496 15.1421 354.6932 321.5092 82.6564 1.3648 341.1553 22.7137 359.2551 356.2904 58.1873 43.7872 8.4519 338.9814 354.5160 28.9075 276.7336 353.8098 19.4725 1.6731 357.7209 357.0624 359.0285 9.3587 357.4995 1.3067 354.3343 22.2358 0.8814 351.4930 359.8426 358.6474 19.9566 8.6270 357.9555 344.3382 335.9484 
-5.0885 88.5962 185.8725 2.4001 0.3109 173.5433 1.8971 359.7512 357.9808 358.8781 11.1338 358.0855 1.4127 348.6693 2.1420 1.9500 15.0236 1.7404 339.1092 358.4995 8.0347 300.8677 30.3731 355.5507 15.3474 354.5976 321.5120 82.6765 1.3466 341.5678 22.7139 359.2551 356.2920 58.1677 43.7613 8.4510 339.0061 354.5296 28.8983 276.8290 353.8234 19.5900 1.6514 357.6615 357.1175 359.0350 9.4272 357.3348 1.4417 354.3290 22.2574 0.8425 351.4942 359.7986 358.6536 19.9498 8.5707 358.0507 344.2652 335.9775 
-5.1089 88.5949 185.8540 2.3655 0.3054 173.6278 1.8645 359.7504 357.9973 358.8760 11.1476 358.1028 1.3564 348.6597 2.1055 1.9676 15.0497 1.7102 339.0599 358.4924 8.2405 301.0182 31.0563 355.3749 15.9026 354.2823 321.1955 82.3233 2.2274 343.1487 22.7053 359.2556 356.2933 58.0738 43.8645 8.5462 338.9862 354.5506 28.7899 276.8441 353.7653 19.5287 1.6114 357.6365 357.0204 359.0054 9.4583 357.3058 1.4546 354.3146 22.3163 0.7816 351.4946 359.7258 358.7489 20.1751 7.6554 358.3125 344.0821 336.6955 
-5.1313 88.5963 185.8440 2.3305 0.2755 173.7193 1.8746 359.7595 357.9872 358.8153 11.0989 358.0988 1.3175 348.7111 2.0864 1.9290 15.0665 1.6998 339.0709 358.5223 8.1231 300.9094 30.2523 355.7170 15.4285 354.5313 320.5321 82.6696 2.4593 342.8515 22.7271 359.2542 356.3170 57.9587 43.8788 8.6203 339.1175 354.5997 28.7132 276.7260 353.6246 19.6295 1.5736 357.5881 356.9727 358.9904 9.4637 357.2682 1.4829 354.3098 22.3016 0.7270 351.4490 359.6541 358.6403 20.0439 8.7144 357.5094 344.3050 336.1301 
-5.1532 88.5970 185.8321 2.3037 0.2344 173.8240 1.8594 359.7465 358.0067 358.7943 11.0808 358.1196 1.2839 348.7117 2.0712 1.9205 15.1200 1.6886 339.0501 358.4847 8.2787 300.9770 30.7734 355.6491 15.7747 354.2994 320.6551 82.5111 2.3085 343.2324 22.7446 359.2811 356.3197 57.8053 43.9265 8.7488 339.1969 354.6040 28.6524 276.7109 353.6994 19.6080 1.5429 357.4958 356.8717 358.9645 9.5405 357.2481 1.3247 354.2263 22.3119 0.6779 351.4065 359.6281 358.6556 20.0917 8.6513 357.7236 344.0564 336.0551 
-5.1746 88.6007 185.8170 2.2866 0.2181 173.9192 1.8488 359.7735 358.0325 358.7713 11.0442 358.1480 1.2628 348.7212 2.0455 1.9005 15.1558 1.6674 339.0153 358.4348 8.6490 301.2064 32.2704 355.3298 16.6619 353.8822 321.2954 82.2317 1.8855 344.2981 22.7570 359.2523 356.3721 57.8149 43.9250 8.6967 338.9039 354.5158 28.6756 277.5660 353.6760 20.1213 1.5128 357.4439 356.8265 358.9617 9.5936 357.1995 1.3278 354.1914 22.3136 0.6447 351.3866 359.6447 358.6714 20.1430 8.5236 356.7076 344.6726 336.4538 
-5.2009 88.6058 185.8094 2.2630 0.1748 174.0144 1.8389 359.7857 358.0537 358.7553 10.9953 358.1710 1.2385 348.7080 2.0539 1.8462 15.2847 1.6821 338.9917 358.4112 8.5281 301.1432 31.8044 355.6435 16.4191 354.1386 321.0949 82.5524 1.8269 344.2916 22.7680 359.2516 356.4016 57.7042 43.9542 8.7570 338.9923 354.5639 28.6183 277.4935 353.7047 20.2639 1.4851 357.3645 356.7584 358.9387 9.6329 357.1181 1.3841 354.1617 22.3715 0.5951 351.3330 359.6805 358.7107 20.1995 8.4842 356.6941 344.5914 336.3382 
-5.2347 88.6109 185.7974 2.2337 0.1310 174.1159 1.8431 359.8082 358.1006 358.6785 10.9470 358.2256 1.3000 348.6829 2.0423 1.7360 15.3428 1.6777 339.0040 358.3730 8.7404 301.2403 32.5467 355.4660 16.8728 353.9493 321.5752 82.4542 1.5316 344.8188 22.8088 359.2689 356.3609 57.5070 44.0258 8.9482 339.0960 354.6201 28.5719 277.3618 353.7689 20.3137 1.4333 357.2646 356.6886 358.9304 9.7195 357.1055 1.4923 354.1228 22.4004 0.5385 351.2798 359.6761 358.7319 20.2620 8.3617 356.7990 344.4177 336.3600 
-5.2654 88.6155 185.7895 2.2159 0.0657 174.2223 1.8583 359.8126 358.1096 358.6434 10.8776 358.2366 1.1997 348.7379 2.0177 1.8313 15.3059 1.6512 339.0277 358.3484 8.7781 301.1253 32.6094 355.5557 17.0052 353.9834 321.8623 82.5737 1.2154 344.9522 22.8207 359.2879 356.3939 57.3676 44.0750 9.0347 339.0743 354.6402 28.5609 277.5365 353.8417 20.5851 1.4078 357.1376 356.5868 358.9102 9.8069 357.0524 1.3441 353.9698 22.5165 0.5045 351.1957 359.7204 358.7450 20.3364 8.2789 356.8213 344.2620 336.2957 
-5.3011 88.6195 185.7625 2.1964 0.0599 174.3168 1.8466 359.8541 358.1585 358.6154 10.8502 358.2897 1.1228 348.7830 2.0078 1.8905 15.2462 1.6454 339.0448 358.3793 8.8087 301.0091 32.3894 355.6209 16.9685 354.0873 322.0684 82.6513 1.0179 344.9282 22.8076 359.2689 356.4667 57.3370 44.0664 9.0460 339.0715 354.6068 28.5462 277.5708 353.8076 20.7724 1.3658 357.0949 356.5237 358.8961 9.8744 357.0319 1.3989 353.9200 22.5253 0.4525 351.1886 359.7341 358.7388 20.4087 8.3690 356.8835 344.1315 336.1412 
